<?xml version="1.0" encoding="utf-8"?>
<!-- Generator: Adobe Illustrator 21.0.0, SVG Export Plug-In . SVG Version: 6.00 Build 0)  -->
<svg version="1.1" id="Layer_1" xmlns="http://www.w3.org/2000/svg" xmlns:xlink="http://www.w3.org/1999/xlink" x="0px" y="0px"
	 viewBox="0 0 145.9 256" style="enable-background:new 0 0 145.9 256;" xml:space="preserve">
<path d="M139.8,38.3L94.1,11.9l0,0l0,0L73.6,0L51.2,12.9L19.4,31.3c-4.3,2.5-6.7,6.9-6.7,11.5c0,2.3,0.5,4.5,1.8,6.7c0,0,0,0,0,0.1
	L0,58h4.8l-2.3,4.3l15.5-9c4.1,3.2,9.9,3.7,14.7,1l40.9-23.6l0,0l45.7,26.4v58.3L90.1,98.6L71.4,87.7l-25.9,15.7l-17.6,10.6
	L1.2,130.2v31.1v22.3v30.7l26.6,15.4l19.1,11L73.6,256L96,243l39.6-22.9l10.3-5.9v-30.7v-31.6v-21.2V72.5V41.8L139.8,38.3z
	 M32.2,39.4L31.1,40c-0.4,0.2-0.9,0.3-1.3,0.3c-2.2,0-4-1.9-4-4.1c0-2.2,1.8-4.1,4-4.1c2.3,0,4.1,1.9,4.1,4.1
	C33.8,37.5,33.1,38.6,32.2,39.4z M73.5,225.3l-45.7-26.4v-53.7l44-26.5l47.5,27.4v52.8L73.5,225.3z"/>
</svg>
