<?xml version="1.0" encoding="utf-8"?>
<!-- Generator: Adobe Illustrator 21.0.0, SVG Export Plug-In . SVG Version: 6.00 Build 0)  -->
<svg version="1.1" id="Layer_1" xmlns="http://www.w3.org/2000/svg" xmlns:xlink="http://www.w3.org/1999/xlink" x="0px" y="0px"
	 viewBox="0 0 291.7 512" style="enable-background:new 0 0 291.7 512;" xml:space="preserve">
<style type="text/css">
	.st0{fill:#023756;}
</style>
<path class="st0" d="M279.6,76.5l-91.5-52.8l0,0l0,0L147.2,0l-44.8,25.8L38.8,62.6c-8.5,4.9-13.3,13.8-13.3,23c0,4.5,1.1,9,3.6,13.3
	c0,0,0.1,0.1,0.1,0.1L0,116h9.6l-4.7,8.6l31-17.9c8.3,6.3,19.8,7.5,29.3,2l81.8-47.3l0,0l91.4,52.8v116.6l-58.3-33.6l-37.5-21.7
	l-51.9,31.4l-35.2,21.3L2.5,260.4v62.1V367v61.4l53.2,30.7l38.2,22.1l53.3,30.7l44.8-25.9l79.1-45.8l20.6-11.8V367v-63.2v-42.4
	V144.9V83.6L279.6,76.5z M64.4,78.8l-2.2,1.3c-0.8,0.3-1.7,0.6-2.7,0.6c-4.4,0-8-3.7-8-8.1c0-4.4,3.6-8.1,8-8.1
	c4.5,0,8.1,3.7,8.1,8.1C67.6,75,66.3,77.3,64.4,78.8z M147,450.6l-91.4-52.8V290.4l87.9-53.1l95,54.8v105.6L147,450.6z"/>
</svg>
