<?xml version="1.0" encoding="utf-8"?>
<!-- Generator: Adobe Illustrator 21.0.0, SVG Export Plug-In . SVG Version: 6.00 Build 0)  -->
<svg version="1.1" id="Layer_1" xmlns="http://www.w3.org/2000/svg" xmlns:xlink="http://www.w3.org/1999/xlink" x="0px" y="0px"
	 viewBox="0 0 623.6 200" style="enable-background:new 0 0 623.6 200;" xml:space="preserve">
<path d="M109.2,29.9L73.5,9.3l0,0l0,0L57.5,0L40,10.1L15.2,24.5c-3.3,1.9-5.2,5.4-5.2,9c0,1.8,0.4,3.5,1.4,5.2c0,0,0,0,0,0.1L0,45.3
	h3.7l-1.8,3.4l12.1-7c3.2,2.5,7.7,2.9,11.5,0.8l32-18.5l0,0l35.7,20.6v45.6L70.4,77l-14.7-8.5L35.5,80.8l-13.8,8.3L1,101.7V126v17.4
	v24l20.8,12l14.9,8.6l20.8,12L75,189.9l30.9-17.9l8.1-4.6v-24v-24.7v-16.6V56.6v-24L109.2,29.9z M25.1,30.8l-0.9,0.5
	c-0.3,0.1-0.7,0.2-1,0.2c-1.7,0-3.1-1.5-3.1-3.2c0-1.7,1.4-3.2,3.1-3.2c1.8,0,3.2,1.5,3.2,3.2C26.4,29.3,25.9,30.2,25.1,30.8z
	 M57.4,176l-35.7-20.6v-41.9l34.3-20.7l37.1,21.4v41.3L57.4,176z"/>
<g>
	<path d="M176.5,112.8l-4.7,10.6h-8.4L184,76.7h8.4l20.6,46.7h-8.4l-4.7-10.6H176.5z M196.6,105.5l-8.5-19.2l-8.5,19.2H196.6z"/>
	<path d="M219.4,123.4V76.7h7.9v39.2h21.3v7.5H219.4z"/>
	<path d="M289.5,100.7h7.9v16c-4.4,4.9-10.7,7.3-18.9,7.3c-6.9,0-12.7-2.3-17.3-6.8c-4.7-4.5-7-10.3-7-17.2c0-6.9,2.4-12.7,7.1-17.4
		c4.7-4.6,10.5-6.9,17.2-6.9c6.7,0,12.3,2,16.8,5.9l-4.2,6c-1.8-1.6-3.7-2.6-5.5-3.2c-1.8-0.6-4-0.9-6.4-0.9
		c-4.7,0-8.7,1.5-11.9,4.6c-3.2,3.1-4.8,7.1-4.8,12c0,5,1.6,9,4.7,12c3.1,3,6.9,4.5,11.3,4.5c4.4,0,8.1-1,11.1-2.9V100.7z"/>
	<path d="M346.9,116.9c-4.7,4.6-10.6,6.9-17.5,6.9s-12.8-2.3-17.5-6.9c-4.7-4.6-7.1-10.4-7.1-17.2c0-6.9,2.4-12.6,7.1-17.2
		c4.7-4.6,10.6-6.9,17.5-6.9s12.8,2.3,17.5,6.9c4.7,4.6,7.1,10.4,7.1,17.2C353.9,106.6,351.6,112.3,346.9,116.9z M341.1,87.7
		c-3.2-3.3-7.1-4.9-11.7-4.9s-8.5,1.6-11.7,4.9c-3.2,3.3-4.8,7.3-4.8,12s1.6,8.7,4.8,12c3.2,3.3,7.1,4.9,11.7,4.9s8.5-1.6,11.7-4.9
		s4.8-7.3,4.8-12S344.3,91,341.1,87.7z"/>
	<path d="M401.2,91.9c0,7.7-3.4,12.6-10.1,14.6l12.2,17h-10l-11.2-15.7h-10.4v15.7h-7.9V76.7h17.4c7.1,0,12.2,1.2,15.3,3.6
		C399.6,82.7,401.2,86.6,401.2,91.9z M390.7,98.5c1.6-1.4,2.4-3.6,2.4-6.6c0-3-0.8-5.1-2.5-6.3c-1.6-1.1-4.6-1.7-8.8-1.7h-10v16.7
		h9.8C386,100.5,389.1,99.9,390.7,98.5z"/>
	<path d="M412.5,76.7h7.9v46.7h-7.9V76.7z"/>
	<path d="M451,83.9v39.5h-7.9V83.9h-14.2v-7.2h36.2v7.2H451z"/>
	<path d="M473.7,123.4V76.7h7.9v20.2h23.2V76.7h7.9v46.7h-7.9v-19.1h-23.2v19.1H473.7z"/>
	<path d="M533.5,123.4h-7.9V76.7h12.3L552,106l14.1-29.3h12.2v46.7h-7.9V86.9l-16.3,32.4h-4.4l-16.2-32.4V123.4z"/>
	<path d="M605.4,82.8c-2.3,0-4.2,0.5-5.6,1.4c-1.5,0.9-2.2,2.3-2.2,4.2c0,1.9,0.7,3.3,2.2,4.3c1.5,1,4.6,2.1,9.4,3.2
		c4.8,1.2,8.4,2.8,10.8,4.9c2.4,2.1,3.6,5.2,3.6,9.3c0,4.1-1.5,7.4-4.6,9.9c-3.1,2.5-7.1,3.8-12.1,3.8c-7.3,0-13.8-2.5-19.4-7.5
		l4.9-5.9c4.7,4.1,9.6,6.1,14.7,6.1c2.5,0,4.6-0.5,6-1.6c1.5-1.1,2.2-2.5,2.2-4.3c0-1.8-0.7-3.2-2.1-4.2c-1.4-1-3.8-1.9-7.2-2.7
		c-3.4-0.8-6-1.6-7.8-2.3c-1.8-0.7-3.4-1.6-4.7-2.7c-2.8-2.1-4.1-5.3-4.1-9.6c0-4.3,1.6-7.6,4.7-10c3.1-2.3,7-3.5,11.7-3.5
		c3,0,5.9,0.5,8.9,1.5c2.9,1,5.5,2.4,7.6,4.1l-4.2,5.9c-1.4-1.2-3.3-2.3-5.6-3.1C610,83.2,607.7,82.8,605.4,82.8z"/>
</g>
</svg>
