<?xml version="1.0" encoding="utf-8"?>
<!-- Generator: Adobe Illustrator 21.0.0, SVG Export Plug-In . SVG Version: 6.00 Build 0)  -->
<svg version="1.1" id="Layer_1" xmlns="http://www.w3.org/2000/svg" xmlns:xlink="http://www.w3.org/1999/xlink" x="0px" y="0px"
	 viewBox="0 0 72.9 128" style="enable-background:new 0 0 72.9 128;" xml:space="preserve">
<style type="text/css">
	.st0{fill:#D24D25;}
</style>
<path class="st0" d="M69.9,19.1L47,5.9l0,0l0,0L36.8,0L25.6,6.5L9.7,15.7c-2.1,1.2-3.3,3.5-3.3,5.8c0,1.1,0.3,2.3,0.9,3.3
	c0,0,0,0,0,0L0,29h2.4l-1.2,2.2L9,26.7c2.1,1.6,5,1.9,7.3,0.5l20.5-11.8l0,0l22.8,13.2v29.2l-14.6-8.4l-9.4-5.4l-13,7.8L13.9,57
	l-13.3,8v15.5v11.1v15.4l13.3,7.7l9.5,5.5l13.3,7.7l11.2-6.5l19.8-11.4l5.2-3V91.8V76V65.4V36.2V20.9L69.9,19.1z M16.1,19.7L15.5,20
	c-0.2,0.1-0.4,0.1-0.7,0.1c-1.1,0-2-0.9-2-2c0-1.1,0.9-2,2-2c1.1,0,2,0.9,2,2C16.9,18.8,16.6,19.3,16.1,19.7z M36.8,112.6L13.9,99.4
	V72.6l22-13.3L59.6,73v26.4L36.8,112.6z"/>
</svg>
