<?xml version="1.0" encoding="utf-8"?>
<!-- Generator: Adobe Illustrator 21.0.0, SVG Export Plug-In . SVG Version: 6.00 Build 0)  -->
<svg version="1.1" id="Layer_1" xmlns="http://www.w3.org/2000/svg" xmlns:xlink="http://www.w3.org/1999/xlink" x="0px" y="0px"
	 viewBox="0 0 196.5 249.8" style="enable-background:new 0 0 196.5 249.8;" xml:space="preserve">
<style type="text/css">
	.st0{fill:#023756;}
</style>
<path class="st0" d="M146.1,27.4L113.4,8.5l0,0l0,0L98.7,0L82.7,9.2L59.9,22.4c-3,1.8-4.8,5-4.8,8.2c0,1.6,0.4,3.2,1.3,4.8
	c0,0,0,0,0,0L46,41.5h3.4l-1.7,3.1l11.1-6.4c3,2.3,7.1,2.7,10.5,0.7L98.7,22l0,0l32.7,18.9v41.8l-20.9-12l-13.4-7.8L78.6,74.1
	l-12.6,7.6L46.9,93.2v22.2v16v22l19.1,11l13.7,7.9l19.1,11l16.1-9.3l28.3-16.4l7.4-4.2v-22v-22.6V93.6V51.9v-22L146.1,27.4z
	 M69.1,28.2l-0.8,0.5c-0.3,0.1-0.6,0.2-1,0.2c-1.6,0-2.9-1.3-2.9-2.9s1.3-2.9,2.9-2.9c1.6,0,2.9,1.3,2.9,2.9
	C70.2,26.9,69.7,27.7,69.1,28.2z M98.7,161.3l-32.7-18.9V104l31.5-19l34,19.6v37.8L98.7,161.3z"/>
<g>
	<path class="st0" d="M5.6,245.2l-2,4.5H0l8.8-19.9h3.6l8.8,19.9h-3.6l-2-4.5H5.6z M14.2,242.1l-3.6-8.2L7,242.1H14.2z"/>
	<path class="st0" d="M23.9,249.8v-19.9h3.4v16.7h9.1v3.2H23.9z"/>
	<path class="st0" d="M53.9,240.1h3.4v6.8c-1.9,2.1-4.6,3.1-8.1,3.1c-2.9,0-5.4-1-7.4-2.9c-2-1.9-3-4.4-3-7.4c0-3,1-5.4,3-7.4
		c2-2,4.5-3,7.3-3c2.9,0,5.3,0.8,7.2,2.5l-1.8,2.6c-0.8-0.7-1.6-1.1-2.4-1.4c-0.8-0.3-1.7-0.4-2.8-0.4c-2,0-3.7,0.7-5.1,2
		c-1.4,1.3-2.1,3-2.1,5.1c0,2.1,0.7,3.8,2,5.1c1.3,1.3,2.9,1.9,4.8,1.9c1.9,0,3.5-0.4,4.7-1.2V240.1z"/>
	<path class="st0" d="M78.3,247c-2,2-4.5,3-7.5,3c-3,0-5.5-1-7.5-3c-2-2-3-4.4-3-7.4c0-2.9,1-5.4,3-7.4c2-2,4.5-3,7.5-3
		c3,0,5.5,1,7.5,3c2,2,3,4.4,3,7.4C81.4,242.6,80.4,245.1,78.3,247z M75.9,234.5c-1.4-1.4-3-2.1-5-2.1c-2,0-3.6,0.7-5,2.1
		c-1.4,1.4-2,3.1-2,5.1s0.7,3.7,2,5.1c1.4,1.4,3,2.1,5,2.1c2,0,3.6-0.7,5-2.1c1.4-1.4,2-3.1,2-5.1S77.2,235.9,75.9,234.5z"/>
	<path class="st0" d="M101.5,236.3c0,3.3-1.4,5.4-4.3,6.2l5.2,7.2h-4.3l-4.8-6.7H89v6.7h-3.4v-19.9H93c3,0,5.2,0.5,6.5,1.5
		C100.9,232.4,101.5,234,101.5,236.3z M97.1,239.1c0.7-0.6,1-1.5,1-2.8c0-1.3-0.4-2.2-1.1-2.7c-0.7-0.5-2-0.7-3.8-0.7H89v7.1h4.2
		C95.1,240,96.4,239.7,97.1,239.1z"/>
	<path class="st0" d="M106.4,229.8h3.4v19.9h-3.4V229.8z"/>
	<path class="st0" d="M122.8,232.9v16.9h-3.4v-16.9h-6v-3.1h15.5v3.1H122.8z"/>
	<path class="st0" d="M132.5,249.8v-19.9h3.4v8.6h9.9v-8.6h3.4v19.9h-3.4v-8.2h-9.9v8.2H132.5z"/>
	<path class="st0" d="M158,249.8h-3.4v-19.9h5.2l6,12.5l6-12.5h5.2v19.9h-3.4v-15.6l-7,13.8H165l-6.9-13.8V249.8z"/>
	<path class="st0" d="M188.7,232.5c-1,0-1.8,0.2-2.4,0.6c-0.6,0.4-0.9,1-0.9,1.8c0,0.8,0.3,1.4,0.9,1.9c0.6,0.4,2,0.9,4,1.4
		c2,0.5,3.6,1.2,4.6,2.1c1,0.9,1.6,2.2,1.6,4c0,1.7-0.7,3.2-2,4.2c-1.3,1.1-3,1.6-5.2,1.6c-3.1,0-5.9-1.1-8.3-3.2l2.1-2.5
		c2,1.7,4.1,2.6,6.3,2.6c1.1,0,1.9-0.2,2.6-0.7c0.6-0.5,1-1.1,1-1.9c0-0.8-0.3-1.4-0.9-1.8c-0.6-0.4-1.6-0.8-3.1-1.2
		c-1.5-0.4-2.6-0.7-3.3-1c-0.8-0.3-1.4-0.7-2-1.2c-1.2-0.9-1.8-2.3-1.8-4.1c0-1.8,0.7-3.3,2-4.3c1.3-1,3-1.5,5-1.5
		c1.3,0,2.5,0.2,3.8,0.6c1.3,0.4,2.3,1,3.3,1.8l-1.8,2.5c-0.6-0.5-1.4-1-2.4-1.3C190.7,232.6,189.7,232.5,188.7,232.5z"/>
</g>
</svg>
